<?xml version="1.0" encoding="UTF-8"?>
<svg id="Layer_2" data-name="Layer 2" xmlns="http://www.w3.org/2000/svg" viewBox="0 0 123.76 123.76">
  <defs>
    <style>
      .cls-1 {
        fill: #1b1851;
      }

      .cls-2 {
        fill: #ffd53a;
      }
    </style>
  </defs>
  <g id="Layer_1-2" data-name="Layer 1">
    <circle class="cls-2" cx="61.88" cy="61.88" r="61.88"/>
    <path class="cls-1" d="M24.6,21.23c-1.91,4.44-3.98,8.9-5.3,13.57-.71,2.53-1.98,6.95.85,8.63,1.89,1.13,3.98.02,5.55-1.12,3.19-2.31,6.41-6.3,9.6-9,6.52-5.52,14.33-10.5,22.59-12.93,7.67-2.25,21.01-3.58,26.87,3.06,6.61,7.5-.25,13.89-5.48,19.25-10.37,10.63-27.22,24.38-30.44,39.47-3.75,17.55,11.91,19.46,24.66,14.25,25.28-10.32,42.11-41.75,26.6-66.93-11.88-19.28-33.03-20.44-52.19-11.65-2.89,1.32-10.46,6.28-12.8,6.54-3.42.38-5.21-2.23-4.28-5.39,1.67-5.65,14.12-9.96,19.4-11.1,26.09-5.62,53.16,8.6,62.33,33.68,11.86,32.45-7.27,64.99-40.35,72.33-13.72,3.04-34.97,2.01-33.84-16.92,1.02-17.16,12.77-31.11,22.09-44.47,1.48-2.12,6.11-8.43,5.99-10.74-.17-3.28-5.14-3.37-7.54-3.26-21.02.97-32.7,21.61-29.38,41.09.85,5.03,4.66,11.92,3.08,16.64-1.02,3.04-3.79,4.48-6.88,3.52-4.93-1.54-10.52-10.85-12.69-15.39C2.9,63.08,7.37,37.31,24.6,21.23Z"/>
  </g>
</svg>